<svg width="104" height="115" viewBox="0 0 104 115" fill="none" xmlns="http://www.w3.org/2000/svg">
<path d="M9.89568 21.5544C11.0413 21.1726 11.7095 19.9315 11.3277 18.7859C10.9458 17.6404 9.70475 16.9721 8.46369 17.354C7.3181 17.7358 6.64984 18.9769 7.0317 20.1225C7.41356 21.268 8.65462 21.9363 9.89568 21.5544Z" fill="#EAEEF9"/>
<path d="M14.7648 14.2995C15.5285 14.0131 16.0059 13.1539 15.7195 12.3902C15.4331 11.6265 14.5739 11.1492 13.8102 11.4356C13.0464 11.722 12.5691 12.5812 12.8555 13.3449C13.0464 14.1086 13.9056 14.5859 14.7648 14.2995Z" fill="#EAEEF9"/>
<path d="M95.584 31.6449C97.016 30.4039 97.1115 28.2082 95.775 26.8717C94.5339 25.5352 92.3382 25.4397 91.0017 26.6807C89.5697 27.9218 89.4742 30.1175 90.8107 31.454C92.0518 32.7905 94.2475 32.886 95.584 31.6449Z" fill="#EAEEF9"/>
<path d="M100.738 38.3366C101.311 37.7638 101.407 36.9047 100.834 36.3319C100.261 35.7591 99.4017 35.6636 98.8289 36.2364C98.2561 36.8092 98.1607 37.6684 98.7335 38.2412C99.2108 38.9094 100.165 38.9094 100.738 38.3366Z" fill="#EAEEF9"/>
<path d="M13.8095 94.9675C14.3823 94.3947 14.4778 93.5355 13.905 92.9627C13.3322 92.3899 12.473 92.2945 11.9002 92.8673C11.3274 93.44 11.232 94.2992 11.8048 94.872C12.3776 95.4448 13.2367 95.5403 13.8095 94.9675Z" fill="#EAEEF9"/>
<path d="M49.8963 99.6444C74.4311 99.6444 94.3834 79.7876 94.3834 55.3484C94.288 30.8138 74.4311 10.957 49.8963 10.957C25.2661 10.957 5.40918 30.8138 5.40918 55.253C5.40918 79.7876 25.2661 99.6444 49.8963 99.6444Z" fill="#EAEEF9"/>
<path d="M79.4203 32.4179V35.8485H79.1564H75.8137L24.529 35.6726C23.5614 35.6726 22.5937 35.4967 21.6261 35.2328C21.5381 35.2328 21.4502 35.1448 21.3622 35.1448C20.1307 34.705 19.0751 34.1772 18.1954 33.2975C17.4917 32.5938 16.9639 31.5382 16.9639 30.5706C16.9639 28.7233 18.4593 27.3158 20.5705 26.4362C21.2742 26.0843 22.1539 25.9084 23.0336 25.8204C23.3854 25.8204 23.7373 25.7324 24.0892 25.7324H72.7348C73.2626 25.7324 73.7025 25.8204 74.1423 25.9084C74.4942 25.9963 74.846 26.0843 75.1979 26.2602C77.7489 27.3158 79.4203 29.6029 79.4203 32.4179Z" fill="url(#paint0_linear_118_34540)"/>
<path opacity="0.1" d="M79.1554 35.8517H75.8126L24.528 35.6758C23.5603 35.6758 22.5927 35.4999 21.625 35.236C21.5371 35.236 21.4491 35.148 21.3611 35.148C20.1296 34.7082 19.074 34.1804 18.1943 33.3007C18.8101 32.685 19.6018 32.1572 20.5694 31.8053C21.2732 31.4534 22.1528 31.2775 23.0325 31.1895C23.3844 31.1016 23.7362 31.1016 24.0881 31.1016H72.7338C73.2616 31.1016 73.7014 31.1895 74.1413 31.2775C74.4931 31.3655 74.845 31.4534 75.1969 31.6294C77.1321 32.4211 78.5396 34.0045 79.1554 35.8517Z" fill="#020305"/>
<g filter="url(#filter0_d_118_34540)">
<path d="M85.6661 41.216V84.4075C85.6661 87.3983 83.291 89.7734 80.3001 89.7734H28.4876C24.1772 89.7734 20.8345 87.7502 18.7233 86.0789C17.7556 85.2872 17.1399 84.0556 17.1399 82.8241C17.1399 82.2083 17.1399 81.5926 17.1399 80.9768C17.1399 80.0971 17.1399 79.0415 17.1399 77.986C17.1399 73.0598 17.1399 66.4624 17.0519 59.7769C17.0519 58.8093 17.0519 57.8417 17.0519 56.7861C17.0519 53.2674 17.0519 49.7488 16.9639 46.4061C16.9639 45.4384 16.9639 44.4708 16.9639 43.4152C16.9639 36.8177 16.876 31.8916 16.876 30.748C16.876 32.6833 18.7233 34.4426 21.1864 35.1464C21.2743 35.1464 21.3623 35.2343 21.4503 35.2343C22.3299 35.4982 23.3855 35.6742 24.3532 35.6742L75.6378 35.9381H79.3324H80.2121C83.2909 35.8501 85.6661 38.2252 85.6661 41.216Z" fill="url(#paint1_linear_118_34540)"/>
</g>
<path opacity="0.1" d="M75.2849 55.9082C73.4376 55.9082 71.8542 56.6119 70.7107 57.7555C69.5671 58.8991 68.7754 60.5704 68.7754 62.3297C68.7754 62.4177 68.7754 62.5936 68.7754 62.6816C68.9513 66.1123 71.8542 68.8393 75.2849 68.8393H85.665V55.9082H75.2849Z" fill="url(#paint2_linear_118_34540)"/>
<g filter="url(#filter1_d_118_34540)">
<path d="M85.6655 53.4434V55.0268C85.5775 55.0268 85.4895 55.0268 85.3136 55.0268H74.7576C72.9103 55.0268 71.3269 55.7305 70.1833 56.874C69.1277 57.9296 68.336 59.513 68.248 61.1844C68.248 61.2724 68.248 61.4483 68.248 61.5363C68.248 65.1429 71.151 68.0458 74.7576 68.0458H85.3136C85.8414 68.0458 86.2813 67.8698 86.4572 67.6059C86.5452 67.518 86.6331 67.342 86.6331 67.2541V54.2351C86.6331 53.7952 86.1933 53.5313 85.6655 53.4434Z" fill="url(#paint3_linear_118_34540)"/>
</g>
<path d="M74.2299 65.4071C76.3411 65.4071 78.1005 63.6477 78.1005 61.5365C78.1005 59.4253 76.3411 57.666 74.2299 57.666C72.1187 57.666 70.3594 59.4253 70.3594 61.5365C70.3594 63.6477 72.1187 65.4071 74.2299 65.4071Z" fill="#DADFEC"/>
<path d="M40.4665 65.0434C41.92 65.0434 43.1498 63.8135 43.1498 62.3601C43.1498 60.9066 41.92 59.6768 40.4665 59.6768C39.0131 59.6768 37.7832 60.9066 37.7832 62.3601C37.7832 63.8135 39.0131 65.0434 40.4665 65.0434Z" fill="#989FB0"/>
<path d="M61.0388 65.0434C62.4922 65.0434 63.7221 63.8135 63.7221 62.3601C63.7221 60.9066 62.4922 59.6768 61.0388 59.6768C59.5853 59.6768 58.3555 60.9066 58.3555 62.3601C58.3555 63.9253 59.5853 65.0434 61.0388 65.0434Z" fill="#989FB0"/>
<path d="M40.3616 53.4819L34.459 56.6689L35.2558 58.1446L41.1584 54.9575L40.3616 53.4819Z" fill="#989FB0"/>
<path d="M60.6736 53.4412L59.877 54.917L65.7803 58.1034L66.5769 56.6276L60.6736 53.4412Z" fill="#989FB0"/>
<path d="M50.7526 71.3042C52.4816 71.3042 53.8831 70.253 53.8831 68.9563C53.8831 67.6596 52.4816 66.6084 50.7526 66.6084C49.0237 66.6084 47.6221 67.6596 47.6221 68.9563C47.6221 70.253 49.0237 71.3042 50.7526 71.3042Z" fill="#989FB0"/>
<path d="M96.8317 3.87073C88.1009 1.95608 78.7573 2.26243 70.1797 4.78976C68.4182 5.32586 66.5035 6.01513 65.125 7.24051C62.9806 9.00198 62.0615 12.142 62.7508 14.8225C63.4401 17.503 65.7377 19.724 68.5714 20.2601C70.3329 20.7196 72.4773 20.1069 73.5495 18.6518C74.5451 17.1201 74.3153 14.8225 73.09 13.444C71.8646 11.9122 69.8733 11.2996 68.0353 11.3761C66.1972 11.4527 64.3591 12.142 62.7508 12.9844C57.5429 15.8181 53.3307 20.7962 51.5692 26.6167C50.6763 29.4443 50.3617 32.4166 50.5904 35.3402" stroke="#C9D4E2" stroke-width="1.5125" stroke-miterlimit="10" stroke-dasharray="3.02 3.02"/>
<path d="M101.426 1.87988C101.35 3.02866 101.273 4.10086 100.431 4.33062C99.5881 4.56038 99.2052 3.79452 98.6691 2.72232C98.133 1.7267 98.4393 0.654504 99.3583 0.424746C100.201 0.194989 101.579 0.501332 101.426 1.87988Z" fill="#DAE2EB"/>
<path d="M100.507 7.39115C100.737 6.0126 100.967 5.24675 100.201 4.86382C99.3585 4.48089 98.8224 5.17016 97.9034 6.08919C97.1375 6.93163 97.597 8.15701 98.3629 8.53994C99.2819 8.99945 100.278 8.53993 100.507 7.39115Z" fill="#DAE2EB"/>
<path d="M101.58 4.86366C101.503 5.39976 101.12 5.78268 100.584 5.85927C100.355 5.85927 100.125 5.85927 99.8185 5.85927C98.7463 5.7061 97.9038 5.01683 97.9804 4.32755C98.057 3.63828 99.0526 3.25535 100.278 3.40853C100.508 3.40853 100.738 3.48511 100.891 3.5617C101.35 3.71487 101.657 4.25097 101.58 4.86366C101.58 4.86366 101.58 4.78707 101.58 4.86366Z" fill="#989FB0"/>
<path d="M17.2695 16.3909C17.2695 15.0889 17.2695 13.787 18.1886 13.4041C19.1842 13.0211 19.7203 13.9402 20.4862 15.2421C21.1754 16.3909 20.8691 17.6163 19.8735 17.9992C19.031 18.3821 17.2695 18.1524 17.2695 16.3909Z" fill="#DAE2EB"/>
<path d="M17.8053 9.95779C17.6521 11.5661 17.4223 12.4851 18.418 12.8681C19.4136 13.251 19.9497 12.4085 20.9453 11.1832C21.7112 10.111 21.1751 8.73242 20.1794 8.34949C19.1838 7.96656 17.9584 8.65583 17.8053 9.95779Z" fill="#DAE2EB"/>
<path d="M16.9639 13.0207C16.9639 12.408 17.4234 11.9485 17.9595 11.8719C18.1892 11.7953 18.4956 11.7953 18.8019 11.8719C20.0273 11.9485 21.0995 12.6378 21.0229 13.4036C20.9464 14.1695 19.9507 14.7056 18.6488 14.5524C18.419 14.5524 18.1892 14.4758 17.9595 14.3992C17.3468 14.3226 16.9639 13.71 16.9639 13.0207Z" fill="#989FB0"/>
<path d="M22.1709 13.252C30.2125 13.252 45.0702 17.9237 45.2999 35.0789" stroke="#C9D4E2" stroke-width="1.5125" stroke-miterlimit="10" stroke-dasharray="3.02 3.02"/>
<defs>
<filter id="filter0_d_118_34540" x="0.238506" y="22.4293" width="102.065" height="92.3003" filterUnits="userSpaceOnUse" color-interpolation-filters="sRGB">
<feFlood flood-opacity="0" result="BackgroundImageFix"/>
<feColorMatrix in="SourceAlpha" type="matrix" values="0 0 0 0 0 0 0 0 0 0 0 0 0 0 0 0 0 0 127 0" result="hardAlpha"/>
<feOffset dy="8.31874"/>
<feGaussianBlur stdDeviation="8.31874"/>
<feColorMatrix type="matrix" values="0 0 0 0 0.397708 0 0 0 0 0.47749 0 0 0 0 0.575 0 0 0 0.27 0"/>
<feBlend mode="normal" in2="BackgroundImageFix" result="effect1_dropShadow_118_34540"/>
<feBlend mode="normal" in="SourceGraphic" in2="effect1_dropShadow_118_34540" result="shape"/>
</filter>
<filter id="filter1_d_118_34540" x="51.6106" y="45.1246" width="51.6597" height="47.8775" filterUnits="userSpaceOnUse" color-interpolation-filters="sRGB">
<feFlood flood-opacity="0" result="BackgroundImageFix"/>
<feColorMatrix in="SourceAlpha" type="matrix" values="0 0 0 0 0 0 0 0 0 0 0 0 0 0 0 0 0 0 127 0" result="hardAlpha"/>
<feOffset dy="8.31874"/>
<feGaussianBlur stdDeviation="8.31874"/>
<feColorMatrix type="matrix" values="0 0 0 0 0.397708 0 0 0 0 0.47749 0 0 0 0 0.575 0 0 0 0.27 0"/>
<feBlend mode="normal" in2="BackgroundImageFix" result="effect1_dropShadow_118_34540"/>
<feBlend mode="normal" in="SourceGraphic" in2="effect1_dropShadow_118_34540" result="shape"/>
</filter>
<linearGradient id="paint0_linear_118_34540" x1="48.197" y1="26.0838" x2="48.197" y2="31.7619" gradientUnits="userSpaceOnUse">
<stop stop-color="#B0BACC"/>
<stop offset="1" stop-color="#969EAE"/>
</linearGradient>
<linearGradient id="paint1_linear_118_34540" x1="51.2486" y1="29.3827" x2="51.2486" y2="90.4098" gradientUnits="userSpaceOnUse">
<stop stop-color="#FDFEFF"/>
<stop offset="0.9964" stop-color="#ECF0F5"/>
</linearGradient>
<linearGradient id="paint2_linear_118_34540" x1="77.2215" y1="56.3574" x2="77.2215" y2="63.6155" gradientUnits="userSpaceOnUse">
<stop stop-color="#B0BACC"/>
<stop offset="1" stop-color="#969EAE"/>
</linearGradient>
<linearGradient id="paint3_linear_118_34540" x1="77.4346" y1="53.1056" x2="77.4346" y2="68.2032" gradientUnits="userSpaceOnUse">
<stop stop-color="#FDFEFF"/>
<stop offset="0.9964" stop-color="#ECF0F5"/>
</linearGradient>
</defs>
</svg>
